<svg width="45" height="45" viewBox="0 0 52 57" fill="none" color="#436075" xmlns="http://www.w3.org/2000/svg">
<path d="M25.5416 1.125H15.8083C10.6978 1.125 8.14259 1.125 6.19065 2.11957C4.47367 2.99441 3.07772 4.39036 2.20288 6.10734C1.20831 8.05928 1.20831 10.6145 1.20831 15.725V41.275C1.20831 46.3855 1.20831 48.9407 2.20288 50.8927C3.07772 52.6096 4.47367 54.0056 6.19065 54.8804C8.14259 55.875 10.6978 55.875 15.8083 55.875H16.4166M25.5416 1.125L43.7916 19.375M25.5416 1.125V9.64167C25.5416 13.0487 25.5416 14.7521 26.2047 16.0534C26.7879 17.1981 27.7186 18.1287 28.8632 18.712C30.1645 19.375 31.868 19.375 35.275 19.375H43.7916M43.7916 19.375V22.4167M13.375 43.7083H20.9791M13.375 31.5417H28.5833M13.375 19.375H16.4166M28.5833 55.875L34.7426 54.6431C35.2796 54.5357 35.5482 54.482 35.7986 54.3838C36.0208 54.2966 36.232 54.1836 36.4279 54.047C36.6485 53.8932 36.8421 53.6995 37.2294 53.3122L49.875 40.6667C51.5548 38.9868 51.5548 36.2632 49.875 34.5833C48.1951 32.9035 45.4715 32.9035 43.7916 34.5833L31.1461 47.2289C30.7588 47.6162 30.5652 47.8098 30.4113 48.0304C30.2747 48.2263 30.1617 48.4375 30.0745 48.6597C29.9763 48.9101 29.9226 49.1787 29.8152 49.7157L28.5833 55.875Z" stroke="#131A29" stroke-linecap="round" stroke-linejoin="round"/>
</svg>
