<svg width="42" height="49" viewBox="0 0 42 49" fill="none" xmlns="http://www.w3.org/2000/svg">
<path d="M41.9817 17.0964C41.9842 17.0542 41.9842 17.0117 41.9817 16.9695C41.9455 16.819 41.8701 16.6811 41.7628 16.5696L25.3281 0.218185C25.2119 0.107068 25.066 0.0312286 24.9078 0H8.21739C6.04894 0.00486639 3.96971 0.860158 2.43141 2.38056C0.893114 3.9013 0.0192 5.96396 0 8.12142V40.8243C0.0048913 42.9911 0.872286 45.0679 2.41221 46.6C3.95217 48.1322 6.03955 48.9951 8.21739 49H33.7826C35.9605 48.9951 38.0478 48.1321 39.5878 46.6C41.1278 45.0679 41.9951 42.9911 42 40.8243V17.2055C42 17.2055 41.9817 17.2055 41.9817 17.0965L41.9817 17.0964ZM38.8774 16.2971H28.3049C27.5785 16.2971 26.8815 16.01 26.368 15.499C25.8545 14.988 25.5658 14.2945 25.5658 13.5719V3.05301L38.8774 16.2971ZM40.174 40.8243C40.174 42.5109 39.5006 44.1282 38.3019 45.3205C37.1036 46.5132 35.4781 47.1831 33.7827 47.1831H8.2175C6.52226 47.1831 4.89673 46.5132 3.6983 45.3205C2.49955 44.1283 1.82619 42.511 1.82619 40.8243V8.12139C1.82619 6.43475 2.49956 4.81746 3.6983 3.62511C4.89663 2.43244 6.52216 1.7625 8.2175 1.7625H23.7392V13.5719C23.7392 14.7764 24.2202 15.9317 25.0761 16.7838C25.9325 17.6354 27.0938 18.1139 28.3045 18.1139H40.174V40.8243ZM8.2175 23.5644H33.7827C34.2869 23.5644 34.6958 23.9712 34.6958 24.4728C34.6958 24.9745 34.2869 25.3812 33.7827 25.3812H8.2175C7.71329 25.3812 7.30445 24.9745 7.30445 24.4728C7.30445 23.9712 7.71329 23.5644 8.2175 23.5644ZM34.6958 33.5569C34.6958 33.7978 34.5996 34.029 34.4284 34.1993C34.2572 34.3697 34.0248 34.4654 33.7827 34.4654H8.2175C7.71329 34.4654 7.30445 34.0586 7.30445 33.5569C7.30445 33.0553 7.71329 32.6485 8.2175 32.6485H33.7827C34.0248 32.6485 34.2572 32.7442 34.4284 32.9146C34.5996 33.0849 34.6958 33.3161 34.6958 33.5569Z" fill="white"/>
</svg>
