<svg width="30" height="35" viewBox="0 0 30 35" fill="none" xmlns="http://www.w3.org/2000/svg">
<path d="M29.2081 12.2117C29.2098 12.1816 29.2098 12.1512 29.2081 12.1211C29.1828 12.0136 29.1304 11.9151 29.0558 11.8354L17.6216 0.155847C17.5407 0.0764773 17.4392 0.0223062 17.3292 0H5.71711C4.20845 0.003476 2.76185 0.614399 1.69161 1.7004C0.621369 2.78664 0.0133581 4.25997 0 5.80101V29.1602C0.00340304 30.7079 0.606878 32.1913 1.67825 33.2857C2.74966 34.3801 4.20191 34.9965 5.71711 35H23.5037C25.0189 34.9965 26.4711 34.3801 27.5425 33.2857C28.6139 32.1913 29.2174 30.7079 29.2208 29.1602V12.2897C29.2208 12.2897 29.208 12.2897 29.208 12.2118L29.2081 12.2117ZM27.0483 11.6408H19.6926C19.1873 11.6408 18.7023 11.4357 18.3451 11.0707C17.9878 10.7057 17.787 10.2104 17.787 9.69423V2.18072L27.0483 11.6408ZM27.9504 29.1602C27.9504 30.3649 27.4819 31.5201 26.6479 32.3718C25.8142 33.2237 24.6832 33.7022 23.5037 33.7022H5.71718C4.53775 33.7022 3.40682 33.2237 2.57303 32.3718C1.73902 31.5202 1.27054 30.365 1.27054 29.1602V5.80099C1.27054 4.59625 1.73902 3.44105 2.57303 2.58936C3.40674 1.73746 4.53768 1.25893 5.71718 1.25893H16.5162V9.69419C16.5162 10.5545 16.8508 11.3798 17.4463 11.9884C18.0421 12.5967 18.8501 12.9385 19.6923 12.9385H27.9504V29.1602ZM5.71718 16.8317H23.5037C23.8545 16.8317 24.139 17.1223 24.139 17.4806C24.139 17.8389 23.8545 18.1295 23.5037 18.1295H5.71718C5.36639 18.1295 5.08195 17.8389 5.08195 17.4806C5.08195 17.1223 5.36639 16.8317 5.71718 16.8317ZM24.139 23.9692C24.139 24.1413 24.0721 24.3064 23.9529 24.4281C23.8338 24.5498 23.6722 24.6181 23.5037 24.6181H5.71718C5.36639 24.6181 5.08195 24.3276 5.08195 23.9692C5.08195 23.6109 5.36639 23.3204 5.71718 23.3204H23.5037C23.6722 23.3204 23.8338 23.3887 23.9529 23.5104C24.0721 23.6321 24.139 23.7972 24.139 23.9692Z" fill="#436075"/>
</svg>
