<svg width="39" height="35" viewBox="0 0 39 35" fill="none" xmlns="http://www.w3.org/2000/svg">
<path d="M8.36229 21.362C7.84824 22.6849 6.98806 23.5917 5.95607 23.8919L5.95603 23.8919C5.71837 23.961 5.4753 23.997 5.23132 23.9999H5.20034C4.28869 23.9999 3.34068 23.5373 2.52145 22.6643C1.70436 21.7937 1.04168 20.5387 0.715515 19.0347L0.715559 19.0347L0.714039 19.0281C0.361288 17.5013 0.44654 15.8829 0.955075 14.4192L0.955153 14.4192L0.957973 14.4106C1.38374 13.1095 2.30549 12.1558 3.40507 11.7998C4.50946 11.5142 5.67977 11.8477 6.56076 12.7364L6.56069 12.7365L6.56792 12.7435C7.59863 13.7422 8.33154 15.111 8.64381 16.6497L8.70376 16.9451C8.99969 18.5559 8.84535 20.1188 8.36229 21.362ZM2.9763 22.1992C3.77985 22.9885 4.81554 23.4251 5.85966 23.1207C6.89185 22.8205 7.60344 21.8955 7.97947 20.7874C8.35905 19.6688 8.43082 18.282 8.12835 16.8834C7.86135 15.5429 7.22512 14.3265 6.30265 13.4214C5.72409 12.8456 4.97986 12.5049 4.191 12.4755L4.18238 12.4752L4.17376 12.4752C3.94654 12.4745 3.71991 12.5068 3.50047 12.571L3.48896 12.5743L3.47763 12.5782C2.50114 12.9153 1.7538 13.7534 1.42565 14.7982C0.989403 16.0805 0.922701 17.4884 1.23355 18.816C1.53711 20.214 2.17043 21.4077 2.9763 22.1992Z" fill="#436075" stroke="#436075"/>
<path d="M14.8885 14.7766L14.9087 14.7706C16.0896 14.4198 17.07 13.3553 17.6531 11.8093C18.2009 10.3572 18.3734 8.53395 18.0358 6.65632L17.9678 6.3133C17.6105 4.51232 16.772 2.90963 15.5915 1.74051L15.5834 1.7325L15.5757 1.72414C14.5894 0.65416 13.2447 0.265859 11.9925 0.638009L14.8885 14.7766ZM14.8885 14.7766C14.6087 14.8583 14.3224 14.8994 14.0354 14.9C13.0501 14.8733 12.0876 14.448 11.3117 13.6707L11.3097 13.6687C10.1291 12.499 9.29026 10.8967 8.93344 9.09595L8.93361 9.09591L8.93065 9.0828C8.52644 7.29626 8.62346 5.40249 9.20488 3.68902L9.20803 3.67975L9.2108 3.67037C9.66666 2.13156 10.7297 1.01333 11.9925 0.63801L14.8885 14.7766ZM11.5331 12.9994C11.5803 13.0492 11.6286 13.0975 11.6777 13.1441L11.6824 13.1488H11.6827C12.5411 13.9611 13.6866 14.3006 14.8073 14.0254L14.8189 14.0225L14.8304 14.0191C16.0296 13.6627 16.8686 12.5705 17.3174 11.2401C17.7162 10.0578 17.8337 8.62236 17.612 7.14514H17.6211L17.5611 6.83786C17.5451 6.74963 17.5279 6.66132 17.5094 6.57295L17.5048 6.54941C17.1918 4.94464 16.4466 3.48983 15.3663 2.40825C14.6852 1.71713 13.8101 1.30887 12.8822 1.27478L12.873 1.27444H12.8638C12.5963 1.27444 12.3299 1.31288 12.0705 1.39026L12.0595 1.39355L12.0486 1.39736C10.8976 1.79931 10.0141 2.80755 9.62555 4.0674C9.11495 5.59875 9.03577 7.28095 9.39806 8.86777C9.71145 10.4687 10.4554 11.9199 11.5331 12.9994Z" fill="#436075" stroke="#436075"/>
<path d="M33.0196 23.8947C33.2467 23.965 33.4785 24 33.7108 24C34.5425 24 35.4209 23.5499 36.189 22.6783C36.9539 21.8101 37.5768 20.5555 37.8836 19.0489L37.8849 19.0427L37.8849 19.0427C38.2168 17.5127 38.1365 15.8911 37.6583 14.4254L37.6555 14.4166L37.6529 14.4078C37.273 13.0794 36.3962 12.1321 35.3771 11.8161L33.0196 23.8947ZM33.0196 23.8947L33.0196 23.8946C32.0713 23.6008 31.2645 22.7055 30.7794 21.376C30.3233 20.1259 30.1788 18.553 30.4612 16.9335L30.5141 16.6557C30.808 15.1135 31.4972 13.7454 32.4615 12.7502L32.469 12.7425L32.4762 12.7344C33.2858 11.8234 34.3727 11.5054 35.3769 11.8161L33.0196 23.8947ZM35.3207 12.59C34.3327 12.2839 33.3146 12.644 32.6325 13.4606C31.7722 14.365 31.1818 15.5735 30.9337 16.9005C30.651 18.2926 30.7182 19.6719 31.0726 20.7842C31.4219 21.8806 32.0877 22.8152 33.0758 23.1211L33.0759 23.1211C34.0875 23.434 35.0772 22.9798 35.8302 22.1912C36.5868 21.3989 37.1776 20.2082 37.4614 18.8182C37.7511 17.5008 37.6899 16.1041 37.2849 14.8304C37.0107 13.7669 36.2925 12.8907 35.3207 12.59Z" fill="#436075" stroke="#436075"/>
<path d="M23.6773 14.7736L23.6781 14.7709C23.9645 14.8564 24.2579 14.8995 24.552 14.9C25.5369 14.8729 26.499 14.4477 27.2745 13.6707L27.2765 13.6687C28.457 12.4989 29.296 10.8966 29.6529 9.09593L29.6555 9.08276L29.6557 9.0828C30.0599 7.29626 29.9629 5.40249 29.3814 3.68903L29.3783 3.67977L29.3755 3.67039C28.9196 2.1316 27.8565 1.01337 26.5937 0.638016L23.6773 14.7736ZM23.6773 14.7736L23.6777 14.7706C22.4968 14.4198 21.5164 13.3552 20.9332 11.8092C20.3831 10.3508 20.2115 8.51799 20.555 6.63177L20.6182 6.31333C20.9755 4.51248 21.8141 2.90971 22.9945 1.74049L23.0026 1.7325L23.0103 1.72415C23.9967 0.654169 25.3414 0.265853 26.5937 0.638011L23.6773 14.7736ZM21.0756 6.5782L21.0812 6.54934C21.3933 4.94992 22.1345 3.49954 23.209 2.41904C24.0635 1.44478 25.3144 1.03261 26.5161 1.39006L21.0756 6.5782ZM21.0756 6.5782C21.058 6.6629 21.0415 6.74755 21.0261 6.83212L20.965 7.14508H20.9741C20.7525 8.62233 20.87 10.0579 21.2688 11.2402C21.7175 12.5706 22.5566 13.663 23.7559 14.0191L23.7673 14.0224L23.7788 14.0253C24.9671 14.3177 26.1832 13.9179 27.0553 12.9972C28.1318 11.9178 28.875 10.4676 29.1882 8.86773C29.5499 7.28379 29.4717 5.60482 28.9635 4.07569C28.6117 2.78155 27.7066 1.7439 26.5162 1.3901L21.0756 6.5782Z" fill="#436075" stroke="#436075"/>
<path d="M9.64439 33.7485C9.03597 33.1303 8.68547 32.1065 8.68506 30.4884L9.64439 33.7485ZM9.64439 33.7485C10.2555 34.2948 10.9888 34.5487 11.7145 34.4922L11.7257 34.4913L11.7257 34.4915C12.9516 34.4237 14.1703 34.2243 15.3676 33.8949L15.3692 33.8945C16.9591 33.4629 18.5795 33.211 20.2093 33.1427L20.2277 33.1419L20.2461 33.1425C21.7781 33.1912 23.2989 33.457 24.7777 33.9335C25.666 34.1819 26.3882 34.3813 27.0093 34.4154C27.6048 34.4481 28.0486 34.325 28.421 33.9665L28.4212 33.9663C28.9867 33.4224 29.3168 32.3928 29.3168 30.3685C29.3168 26.935 28.0689 23.6519 26.1405 21.2328C24.2085 18.8092 21.6358 17.3 19.0004 17.3C16.3671 17.3 13.7949 18.8215 11.8624 21.2675C9.9336 23.7086 8.68509 27.0222 8.68506 30.4882L9.64439 33.7485ZM20.0209 18.164L20.0884 18.0853H19.0008C16.3967 18.0853 13.9306 19.6474 12.1363 21.9337C10.3367 24.227 9.15975 27.3101 9.15954 30.4883V30.4884C9.15954 31.6252 9.34439 32.5464 9.88897 33.0914L9.88924 33.0917C10.4815 33.6836 11.4048 33.7529 12.2918 33.6795C13.204 33.604 14.2702 33.3572 15.3176 33.1147L15.3357 33.1106L15.3443 33.1086L15.3529 33.1063C16.9574 32.6745 18.5912 32.4234 20.2328 32.3571C21.7788 32.4045 23.3163 32.6701 24.8138 33.1495L24.8226 33.1523L24.8315 33.1548L24.8646 33.164C25.4967 33.3409 26.1294 33.5179 26.6616 33.5941C26.9341 33.633 27.2084 33.6502 27.4608 33.6173C27.7145 33.5843 27.9834 33.4956 28.1969 33.29L28.1972 33.2898C28.4062 33.0884 28.5607 32.7747 28.6667 32.3314C28.7741 31.8819 28.8424 31.2532 28.8424 30.3689C28.8424 27.2201 27.6644 24.1662 25.864 21.8952C24.3053 19.9291 22.2409 18.5051 20.0209 18.164Z" fill="#436075" stroke="#436075"/>
</svg>
