<svg width="45" height="45" viewBox="0 0 64 57" fill="none" color="#436075" xmlns="http://www.w3.org/2000/svg">
<path d="M8.58333 20.5759C8.58333 20.2998 8.35948 20.0759 8.08333 20.0759C7.80719 20.0759 7.58333 20.2998 7.58333 20.5759H8.58333ZM13.6799 54.6334L13.8912 54.1803L13.8912 54.1803L13.6799 54.6334ZM9.20052 50.5353L8.76369 50.7786L8.76369 50.7786L9.20052 50.5353ZM54.7995 50.5353L54.3627 50.2921L54.3627 50.2921L54.7995 50.5353ZM50.3201 54.6334L50.1088 54.1803L50.1088 54.1803L50.3201 54.6334ZM44.1865 8.65575L43.8301 9.00642L43.8301 9.00642L44.1865 8.65575ZM62.3936 27.8739C62.5873 28.0707 62.9038 28.0733 63.1007 27.8796C63.2975 27.686 63.3001 27.3694 63.1064 27.1726L62.3936 27.8739ZM0.893536 27.1726C0.699894 27.3695 0.702512 27.686 0.899382 27.8797C1.09625 28.0733 1.41282 28.0707 1.60646 27.8738L0.893536 27.1726ZM19.8064 8.6574L20.1629 9.00802L19.8064 8.6574ZM35.3676 1.42717L35.2158 1.90358L35.2158 1.90358L35.3676 1.42717ZM28.6241 1.42763L28.776 1.90401L28.776 1.90401L28.6241 1.42763ZM25.1667 36.9007V36.4007C24.8905 36.4007 24.6667 36.6245 24.6667 36.9007H25.1667ZM38.8333 36.9007H39.3333C39.3333 36.6245 39.1095 36.4007 38.8333 36.4007V36.9007ZM38.3333 55.6555C38.3333 55.9317 38.5572 56.1555 38.8333 56.1555C39.1095 56.1555 39.3333 55.9317 39.3333 55.6555H38.3333ZM24.6667 55.6555C24.6667 55.9317 24.8905 56.1555 25.1667 56.1555C25.4428 56.1555 25.6667 55.9317 25.6667 55.6555H24.6667ZM56.4167 5.64255C56.4167 5.36641 56.1928 5.14255 55.9167 5.14255C55.6405 5.14255 55.4167 5.36641 55.4167 5.64255H56.4167ZM39.5167 55.1555H24.4833V56.1555H39.5167V55.1555ZM8.58333 40.6516V20.5759H7.58333V40.6516H8.58333ZM24.4833 55.1555C21.6055 55.1555 19.4747 55.1552 17.7884 55.0291C16.1068 54.9035 14.9093 54.6549 13.8912 54.1803L13.4687 55.0866C14.6431 55.6341 15.977 55.8965 17.7139 56.0264C19.4461 56.1558 21.6206 56.1555 24.4833 56.1555V55.1555ZM7.58333 40.6516C7.58333 43.2685 7.58287 45.2641 7.72496 46.8552C7.86771 48.4536 8.15722 49.6897 8.76369 50.7786L9.63734 50.2921C9.12663 49.3751 8.85755 48.2953 8.721 46.7662C8.5838 45.2299 8.58333 43.2866 8.58333 40.6516H7.58333ZM13.8912 54.1803C12.0525 53.3232 10.566 51.9595 9.63734 50.2921L8.76369 50.7786C9.80046 52.6402 11.45 54.1456 13.4687 55.0866L13.8912 54.1803ZM55.4167 40.6516C55.4167 43.2866 55.4162 45.2299 55.279 46.7662C55.1425 48.2953 54.8734 49.3751 54.3627 50.2921L55.2363 50.7786C55.8428 49.6897 56.1323 48.4536 56.275 46.8552C56.4171 45.2641 56.4167 43.2685 56.4167 40.6516H55.4167ZM39.5167 56.1555C42.3794 56.1555 44.5539 56.1558 46.2861 56.0264C48.023 55.8965 49.3569 55.6341 50.5313 55.0866L50.1088 54.1803C49.0907 54.6549 47.8932 54.9035 46.2116 55.0291C44.5253 55.1552 42.3945 55.1555 39.5167 55.1555V56.1555ZM54.3627 50.2921C53.434 51.9595 51.9475 53.3232 50.1088 54.1803L50.5313 55.0866C52.55 54.1456 54.1995 52.6402 55.2363 50.7786L54.3627 50.2921ZM43.8301 9.00642L62.3936 27.8739L63.1064 27.1726L44.5429 8.30508L43.8301 9.00642ZM1.60646 27.8738L20.1629 9.00802L19.4499 8.30678L0.893536 27.1726L1.60646 27.8738ZM44.5429 8.30508C42.4379 6.16567 40.8377 4.53859 39.4516 3.34983C38.0606 2.15682 36.8523 1.37546 35.5194 0.950768L35.2158 1.90358C36.3689 2.27096 37.4591 2.95839 38.8006 4.10889C40.147 5.26365 41.7131 6.85483 43.8301 9.00642L44.5429 8.30508ZM20.1629 9.00802C22.2795 6.85613 23.8453 5.26475 25.1915 4.10981C26.5328 2.95912 27.6229 2.27155 28.776 1.90401L28.4723 0.951244C27.1394 1.37612 25.9312 2.15764 24.5404 3.35084C23.1546 4.53979 21.5545 6.16709 19.4499 8.30678L20.1629 9.00802ZM35.5194 0.950768C33.2371 0.223605 30.7545 0.223772 28.4723 0.951244L28.776 1.90401C30.8606 1.2395 33.131 1.23935 35.2158 1.90358L35.5194 0.950768ZM25.1667 37.4007H38.8333V36.4007H25.1667V37.4007ZM38.3333 36.9007V55.6555H39.3333V36.9007H38.3333ZM25.6667 55.6555V36.9007H24.6667V55.6555H25.6667ZM55.4167 5.64255V40.6516H56.4167V5.64255H55.4167Z" fill="#131A29"/>
</svg>
