<svg width="32" height="58" viewBox="0 0 32 58" fill="none" xmlns="http://www.w3.org/2000/svg">
<path d="M3.36131 18.6413C2.4697 18.6413 1.61497 19.0153 0.984236 19.6809C0.354071 20.3472 0 21.25 0 22.1918V54.4489C0 55.3907 0.354071 56.2942 0.984236 56.9598C1.61499 57.626 2.46967 58 3.36131 58H28.5727C29.4643 58 30.319 57.626 30.9498 56.9598C31.5799 56.2941 31.934 55.3908 31.934 54.4489V22.1918C31.934 21.25 31.5799 20.3472 30.9498 19.6809C30.319 19.0153 29.4643 18.6413 28.5727 18.6413H25.1692V12.7293H28.5727C28.7955 12.7293 29.0094 12.6358 29.1671 12.4693C29.3248 12.3027 29.4133 12.0773 29.4133 11.842V3.55106C29.4133 2.60928 29.0586 1.70583 28.4285 1.04023C27.7983 0.373993 26.943 0 26.0514 0H5.8823C4.99069 0 4.13536 0.373993 3.50523 1.04023C2.87506 1.70586 2.52041 2.60925 2.52041 3.55106V11.8327C2.52041 12.068 2.60892 12.294 2.76661 12.4605C2.9243 12.6271 3.13826 12.7206 3.36101 12.7206H6.76455V18.6413L3.36131 18.6413ZM30.2535 22.1917V54.4488C30.2535 54.9201 30.0764 55.3714 29.761 55.7046C29.4462 56.0371 29.0183 56.2247 28.5728 56.2247H3.36143C2.43288 56.2247 1.68082 55.4296 1.68082 54.4489V22.1917C1.68082 21.2115 2.43291 20.4165 3.36143 20.4165H28.5728C29.0183 20.4165 29.4462 20.6035 29.761 20.9366C30.0764 21.2698 30.2535 21.7211 30.2535 22.1917V22.1917ZM4.20169 3.55068L4.20227 3.5513C4.20227 2.57051 4.95437 1.77549 5.88288 1.77549H26.052C26.4981 1.77549 26.9254 1.96311 27.2408 2.2956C27.5556 2.62873 27.7326 3.08011 27.7326 3.55132V10.9456H4.202L4.20169 3.55068ZM8.44576 12.7203H23.4885V18.641L8.44576 18.6416V12.7203Z" fill="white"/>
<path d="M15.1266 45.4219H16.8079V39.2078H22.6904V37.4326H16.8079V31.2191H15.1266V37.4326H9.24414V39.2078H15.1266V45.4219Z" fill="white"/>
</svg>
