<svg width="19" height="35" viewBox="0 0 19 35" fill="none" xmlns="http://www.w3.org/2000/svg">
<path d="M1.97569 11.2491C1.45162 11.2491 0.949238 11.4748 0.578508 11.8764C0.208114 12.2785 0 12.8233 0 13.3916V32.8571C0 33.4254 0.208114 33.9706 0.578508 34.3723C0.949247 34.7743 1.45161 35 1.97569 35H16.7943C17.3184 35 17.8207 34.7743 18.1915 34.3723C18.5619 33.9706 18.77 33.4255 18.77 32.8571V13.3916C18.77 12.8233 18.5619 12.2785 18.1915 11.8764C17.8207 11.4748 17.3184 11.2491 16.7943 11.2491H14.7938V7.68148H16.7943C16.9252 7.68148 17.051 7.62506 17.1437 7.52455C17.2364 7.42404 17.2884 7.28803 17.2884 7.14605V2.14288C17.2884 1.57457 17.0799 1.02938 16.7095 0.627728C16.3391 0.225685 15.8364 0 15.3123 0H3.45746C2.9334 0 2.43066 0.225685 2.06028 0.627728C1.68989 1.0294 1.48143 1.57455 1.48143 2.14288V7.14041C1.48143 7.28239 1.53346 7.41878 1.62614 7.51928C1.71883 7.61979 1.84459 7.67621 1.97551 7.67621H3.97603V11.2491L1.97569 11.2491ZM17.7822 13.3915V32.8571C17.7822 33.1414 17.6781 33.4138 17.4928 33.6148C17.3077 33.8155 17.0562 33.9287 16.7944 33.9287H1.97576C1.42999 33.9287 0.987943 33.4489 0.987943 32.8571V13.3915C0.987943 12.8001 1.43 12.3203 1.97576 12.3203H16.7944C17.0562 12.3203 17.3077 12.4332 17.4928 12.6342C17.6781 12.8352 17.7822 13.1076 17.7822 13.3916V13.3915ZM2.46964 2.14265L2.46999 2.14303C2.46999 1.55117 2.91205 1.07142 3.45781 1.07142H15.3127C15.5749 1.07142 15.8261 1.18463 16.0114 1.38528C16.1965 1.5863 16.3005 1.85869 16.3005 2.14304V6.60509H2.46983L2.46964 2.14265ZM4.9642 7.67603H13.806V11.2489L4.9642 11.2493V7.67603Z" fill="#436075"/>
<path d="M8.89112 27.4098H9.87929V23.6599H13.3369V22.5887H9.87929V18.8391H8.89112V22.5887H5.43353V23.6599H8.89112V27.4098Z" fill="#436075"/>
</svg>
