<svg width="45" height="45" viewBox="0 0 58 58" fill="none" xmlns="http://www.w3.org/2000/svg">
<path d="M13.1667 51.1667C14.6636 43.9396 21.1836 38.5 29 38.5C36.8164 38.5 43.3364 43.9396 44.8333 51.1667M57.5 29C57.5 44.7401 44.7401 57.5 29 57.5C13.2599 57.5 0.5 44.7401 0.5 29C0.5 13.2599 13.2599 0.5 29 0.5C44.7401 0.5 57.5 13.2599 57.5 29ZM35.3333 22.6667C35.3333 26.1645 32.4978 29 29 29C25.5022 29 22.6667 26.1645 22.6667 22.6667C22.6667 19.1689 25.5022 16.3333 29 16.3333C32.4978 16.3333 35.3333 19.1689 35.3333 22.6667Z" stroke="#131A29" stroke-linecap="round" stroke-linejoin="round"/>
</svg>
