<svg width="39" height="39" viewBox="0 0 39 39" fill="none" xmlns="http://www.w3.org/2000/svg">
<path d="M9.70833 33.2083C10.6341 28.7389 14.6662 25.375 19.5 25.375C24.3338 25.375 28.3659 28.7389 29.2917 33.2083M37.125 19.5C37.125 29.234 29.234 37.125 19.5 37.125C9.76598 37.125 1.875 29.234 1.875 19.5C1.875 9.76598 9.76598 1.875 19.5 1.875C29.234 1.875 37.125 9.76598 37.125 19.5ZM23.4167 15.5833C23.4167 17.7464 21.6631 19.5 19.5 19.5C17.3369 19.5 15.5833 17.7464 15.5833 15.5833C15.5833 13.4202 17.3369 11.6667 19.5 11.6667C21.6631 11.6667 23.4167 13.4202 23.4167 15.5833Z" stroke="#436075" stroke-width="2" stroke-linecap="round" stroke-linejoin="round"/>
</svg>
