<svg width="30" height="30" viewBox="0 0 37 37" fill="none" xmlns="http://www.w3.org/2000/svg">
<path d="M8.83333 32.3333C9.75909 27.8639 13.7912 24.5 18.625 24.5C23.4588 24.5 27.4909 27.8639 28.4167 32.3333M36.25 18.625C36.25 28.359 28.359 36.25 18.625 36.25C8.89098 36.25 1 28.359 1 18.625C1 8.89098 8.89098 1 18.625 1C28.359 1 36.25 8.89098 36.25 18.625ZM22.5417 14.7083C22.5417 16.8714 20.7881 18.625 18.625 18.625C16.4619 18.625 14.7083 16.8714 14.7083 14.7083C14.7083 12.5452 16.4619 10.7917 18.625 10.7917C20.7881 10.7917 22.5417 12.5452 22.5417 14.7083Z" stroke="#087990" stroke-linecap="round" stroke-linejoin="round"/>
</svg>
