<svg width="34" height="37" viewBox="0 0 34 37" fill="none" xmlns="http://www.w3.org/2000/svg">
<path opacity="0.3" d="M16.5556 1H10.3333C7.06636 1 5.43288 1 4.18506 1.6358C3.08744 2.19506 2.19506 3.08744 1.6358 4.18506C1 5.43287 1 7.06636 1 10.3333V26.6667C1 29.9336 1 31.5671 1.6358 32.8149C2.19506 33.9126 3.08744 34.8049 4.18506 35.3642C5.43288 36 7.06636 36 10.3333 36H10.7222M16.5556 1L28.2222 12.6667M16.5556 1V6.44444C16.5556 8.62243 16.5556 9.71142 16.9794 10.5433C17.3523 11.275 17.9472 11.87 18.6789 12.2428C19.5108 12.6667 20.5998 12.6667 22.7778 12.6667H28.2222M28.2222 12.6667V14.6111M8.77778 28.2222H13.6389M8.77778 20.4444H18.5M8.77778 12.6667H10.7222M18.5 36L22.4374 35.2125C22.7808 35.1438 22.9524 35.1095 23.1125 35.0467C23.2546 34.991 23.3896 34.9187 23.5148 34.8314C23.6558 34.7331 23.7796 34.6093 24.0272 34.3617L32.1111 26.2778C33.185 25.2039 33.185 23.4628 32.1111 22.3889C31.0372 21.315 29.2961 21.315 28.2222 22.3889L20.1383 30.4728C19.8907 30.7204 19.7669 30.8442 19.6686 30.9852C19.5813 31.1104 19.509 31.2454 19.4533 31.3875C19.3905 31.5476 19.3562 31.7192 19.2875 32.0626L18.5 36Z" stroke="#436075" stroke-linecap="round" stroke-linejoin="round"/>
</svg>
