<svg width="35" height="35" viewBox="0 0 40 36" fill="none" xmlns="http://www.w3.org/2000/svg">
<path d="M5.91667 13.2537C5.91667 12.9775 5.69281 12.7537 5.41667 12.7537C5.14052 12.7537 4.91667 12.9775 4.91667 13.2537H5.91667ZM8.82923 34.0205L9.04048 33.5673L9.04048 33.5673L8.82923 34.0205ZM6.09788 31.5216L5.66105 31.7649L5.66105 31.7649L6.09788 31.5216ZM33.9021 31.5216L33.4653 31.2783L33.4653 31.2783L33.9021 31.5216ZM31.1708 34.0205L30.9595 33.5673L30.9595 33.5673L31.1708 34.0205ZM27.4308 5.98527L27.0744 6.33595L27.0744 6.33595L27.4308 5.98527ZM38.3936 17.8405C38.5873 18.0373 38.9038 18.0399 39.1007 17.8462C39.2975 17.6526 39.3001 17.336 39.1064 17.1392L38.3936 17.8405ZM0.893535 17.1392C0.699894 17.3361 0.702512 17.6527 0.899382 17.8463C1.09625 18.0399 1.41282 18.0373 1.60646 17.8404L0.893535 17.1392ZM12.5649 5.98628L12.9213 6.3369L12.5649 5.98628ZM22.0534 1.5776L21.9016 2.05401L21.9016 2.05401L22.0534 1.5776ZM17.9415 1.57788L18.0934 2.05426L18.0934 2.05426L17.9415 1.57788ZM15.8333 23.2078V22.7078C15.5572 22.7078 15.3333 22.9316 15.3333 23.2078H15.8333ZM24.1667 23.2078H24.6667C24.6667 22.9316 24.4428 22.7078 24.1667 22.7078V23.2078ZM23.6667 34.6437C23.6667 34.9198 23.8905 35.1437 24.1667 35.1437C24.4428 35.1437 24.6667 34.9198 24.6667 34.6437H23.6667ZM15.3333 34.6437C15.3333 34.9198 15.5572 35.1437 15.8333 35.1437C16.1095 35.1437 16.3333 34.9198 16.3333 34.6437H15.3333ZM35.0833 4.14796C35.0833 3.87182 34.8595 3.64796 34.5833 3.64796C34.3072 3.64796 34.0833 3.87182 34.0833 4.14796H35.0833ZM24.5833 34.1437H15.4167V35.1437H24.5833V34.1437ZM5.91667 25.495V13.2537H4.91667V25.495H5.91667ZM15.4167 34.1437C13.6589 34.1437 12.3682 34.1433 11.3489 34.0672C10.3344 33.9913 9.63079 33.8424 9.04048 33.5673L8.61798 34.4736C9.36461 34.8217 10.2046 34.9844 11.2744 35.0644C12.3396 35.144 13.6741 35.1437 15.4167 35.1437V34.1437ZM4.91667 25.495C4.91667 27.0871 4.9162 28.3141 5.0038 29.295C5.09205 30.2831 5.27256 31.0674 5.66105 31.7649L6.5347 31.2783C6.24198 30.7527 6.08189 30.1248 5.99984 29.206C5.91713 28.2799 5.91667 27.1051 5.91667 25.495H4.91667ZM9.04048 33.5673C7.95444 33.061 7.07984 32.2572 6.5347 31.2783L5.66105 31.7649C6.31433 32.9379 7.35199 33.8835 8.61798 34.4736L9.04048 33.5673ZM34.0833 25.495C34.0833 27.1051 34.0829 28.2799 34.0002 29.206C33.9181 30.1248 33.758 30.7527 33.4653 31.2783L34.3389 31.7649C34.7274 31.0674 34.908 30.2831 34.9962 29.295C35.0838 28.3141 35.0833 27.0871 35.0833 25.495H34.0833ZM24.5833 35.1437C26.3259 35.1437 27.6604 35.144 28.7256 35.0644C29.7954 34.9844 30.6354 34.8217 31.382 34.4736L30.9595 33.5673C30.3692 33.8424 29.6656 33.9913 28.6511 34.0672C27.6318 34.1433 26.3411 34.1437 24.5833 34.1437V35.1437ZM33.4653 31.2783C32.9202 32.2572 32.0456 33.061 30.9595 33.5673L31.382 34.4736C32.648 33.8835 33.6857 32.9379 34.3389 31.7649L33.4653 31.2783ZM27.0744 6.33595L38.3936 17.8405L39.1064 17.1392L27.7872 5.6346L27.0744 6.33595ZM1.60646 17.8404L12.9213 6.3369L12.2084 5.63566L0.893535 17.1392L1.60646 17.8404ZM27.7872 5.6346C26.506 4.33247 25.5236 3.33334 24.6707 2.60185C23.8128 1.86611 23.0531 1.37134 22.2052 1.1012L21.9016 2.05401C22.5696 2.26684 23.2114 2.66767 24.0197 3.36091C24.8329 4.0584 25.7812 5.02162 27.0744 6.33595L27.7872 5.6346ZM12.9213 6.3369C14.2143 5.02239 15.1624 4.05905 15.9756 3.36145C16.7837 2.66811 17.4254 2.26719 18.0934 2.05426L17.7897 1.1015C16.9418 1.37175 16.1822 1.86662 15.3244 2.60248C14.4717 3.33409 13.4894 4.33335 12.2084 5.63566L12.9213 6.3369ZM22.2052 1.1012C20.775 0.645527 19.2198 0.645631 17.7897 1.1015L18.0934 2.05426C19.326 1.66136 20.669 1.66127 21.9016 2.05401L22.2052 1.1012ZM15.8333 23.7078H24.1667V22.7078H15.8333V23.7078ZM23.6667 23.2078V34.6437H24.6667V23.2078H23.6667ZM16.3333 34.6437V23.2078H15.3333V34.6437H16.3333ZM34.0833 4.14796V25.495H35.0833V4.14796H34.0833Z" fill="#436075"/>
</svg>
