<svg width="35" height="35" viewBox="0 0 37 37" fill="none" xmlns="http://www.w3.org/2000/svg">
<path d="M8.70833 32.2083C9.63409 27.7389 13.6662 24.375 18.5 24.375C23.3338 24.375 27.3659 27.7389 28.2917 32.2083M36.125 18.5C36.125 28.234 28.234 36.125 18.5 36.125C8.76598 36.125 0.875 28.234 0.875 18.5C0.875 8.76598 8.76598 0.875 18.5 0.875C28.234 0.875 36.125 8.76598 36.125 18.5ZM22.4167 14.5833C22.4167 16.7464 20.6631 18.5 18.5 18.5C16.3369 18.5 14.5833 16.7464 14.5833 14.5833C14.5833 12.4202 16.3369 10.6667 18.5 10.6667C20.6631 10.6667 22.4167 12.4202 22.4167 14.5833Z" stroke="#436075" stroke-linecap="round" stroke-linejoin="round"/>
</svg>
